<svg id="visual" viewBox="0 0 960 540" width="960" height="540" xmlns="http://www.w3.org/2000/svg" xmlns:xlink="http://www.w3.org/1999/xlink" version="1.1"><path d="M0 77L20 79.7C40 82.3 80 87.7 120 86.7C160 85.7 200 78.3 240 76.5C280 74.7 320 78.3 360 77.5C400 76.7 440 71.3 480 66C520 60.7 560 55.3 600 49.8C640 44.3 680 38.7 720 43.2C760 47.7 800 62.3 840 67.8C880 73.3 920 69.7 940 67.8L960 66L960 0L940 0C920 0 880 0 840 0C800 0 760 0 720 0C680 0 640 0 600 0C560 0 520 0 480 0C440 0 400 0 360 0C320 0 280 0 240 0C200 0 160 0 120 0C80 0 40 0 20 0L0 0Z" fill="#d3aaff"></path><path d="M0 152L20 148.5C40 145 80 138 120 140.7C160 143.3 200 155.7 240 159.2C280 162.7 320 157.3 360 159.2C400 161 440 170 480 160.2C520 150.3 560 121.7 600 116.3C640 111 680 129 720 136.2C760 143.3 800 139.7 840 145C880 150.3 920 164.7 940 171.8L960 179L960 64L940 65.8C920 67.7 880 71.3 840 65.8C800 60.3 760 45.7 720 41.2C680 36.7 640 42.3 600 47.8C560 53.3 520 58.7 480 64C440 69.3 400 74.7 360 75.5C320 76.3 280 72.7 240 74.5C200 76.3 160 83.7 120 84.7C80 85.7 40 80.3 20 77.7L0 75Z" fill="#dbb9ff"></path><path d="M0 298L20 307.8C40 317.7 80 337.3 120 333.7C160 330 200 303 240 284.2C280 265.3 320 254.7 360 254.7C400 254.7 440 265.3 480 278C520 290.7 560 305.3 600 315.3C640 325.3 680 330.7 720 322.5C760 314.3 800 292.7 840 293.5C880 294.3 920 317.7 940 329.3L960 341L960 177L940 169.8C920 162.7 880 148.3 840 143C800 137.7 760 141.3 720 134.2C680 127 640 109 600 114.3C560 119.7 520 148.3 480 158.2C440 168 400 159 360 157.2C320 155.3 280 160.7 240 157.2C200 153.7 160 141.3 120 138.7C80 136 40 143 20 146.5L0 150Z" fill="#e2c8ff"></path><path d="M0 433L20 436.7C40 440.3 80 447.7 120 448.5C160 449.3 200 443.7 240 444.5C280 445.3 320 452.7 360 458.2C400 463.7 440 467.3 480 464.7C520 462 560 453 600 448.5C640 444 680 444 720 443C760 442 800 440 840 439C880 438 920 438 940 438L960 438L960 339L940 327.3C920 315.7 880 292.3 840 291.5C800 290.7 760 312.3 720 320.5C680 328.7 640 323.3 600 313.3C560 303.3 520 288.7 480 276C440 263.3 400 252.7 360 252.7C320 252.7 280 263.3 240 282.2C200 301 160 328 120 331.7C80 335.3 40 315.7 20 305.8L0 296Z" fill="#e7d1ff"></path><path d="M0 541L20 541C40 541 80 541 120 541C160 541 200 541 240 541C280 541 320 541 360 541C400 541 440 541 480 541C520 541 560 541 600 541C640 541 680 541 720 541C760 541 800 541 840 541C880 541 920 541 940 541L960 541L960 436L940 436C920 436 880 436 840 437C800 438 760 440 720 441C680 442 640 442 600 446.5C560 451 520 460 480 462.7C440 465.3 400 461.7 360 456.2C320 450.7 280 443.3 240 442.5C200 441.7 160 447.3 120 446.5C80 445.7 40 438.3 20 434.7L0 431Z" fill="#ecdaff"></path></svg>