<svg id="visual" viewBox="0 0 960 540" width="960" height="540" xmlns="http://www.w3.org/2000/svg" xmlns:xlink="http://www.w3.org/1999/xlink" version="1.1"><rect x="0" y="0" width="960" height="540" fill="#FFFFFF"></rect><defs><linearGradient id="grad1_0" x1="43.8%" y1="100%" x2="100%" y2="0%"><stop offset="14.444444444444446%" stop-color="#e2c8ff" stop-opacity="1"></stop><stop offset="85.55555555555554%" stop-color="#e2c8ff" stop-opacity="1"></stop></linearGradient></defs><defs><linearGradient id="grad1_1" x1="43.8%" y1="100%" x2="100%" y2="0%"><stop offset="14.444444444444446%" stop-color="#e2c8ff" stop-opacity="1"></stop><stop offset="85.55555555555554%" stop-color="#e8d3ff" stop-opacity="1"></stop></linearGradient></defs><defs><linearGradient id="grad1_2" x1="43.8%" y1="100%" x2="100%" y2="0%"><stop offset="14.444444444444446%" stop-color="#eedeff" stop-opacity="1"></stop><stop offset="85.55555555555554%" stop-color="#e8d3ff" stop-opacity="1"></stop></linearGradient></defs><defs><linearGradient id="grad1_3" x1="43.8%" y1="100%" x2="100%" y2="0%"><stop offset="14.444444444444446%" stop-color="#eedeff" stop-opacity="1"></stop><stop offset="85.55555555555554%" stop-color="#f4e9ff" stop-opacity="1"></stop></linearGradient></defs><defs><linearGradient id="grad1_4" x1="43.8%" y1="100%" x2="100%" y2="0%"><stop offset="14.444444444444446%" stop-color="#faf4ff" stop-opacity="1"></stop><stop offset="85.55555555555554%" stop-color="#f4e9ff" stop-opacity="1"></stop></linearGradient></defs><defs><linearGradient id="grad1_5" x1="43.8%" y1="100%" x2="100%" y2="0%"><stop offset="14.444444444444446%" stop-color="#faf4ff" stop-opacity="1"></stop><stop offset="85.55555555555554%" stop-color="#ffffff" stop-opacity="1"></stop></linearGradient></defs><defs><linearGradient id="grad2_0" x1="0%" y1="100%" x2="56.3%" y2="0%"><stop offset="14.444444444444446%" stop-color="#e2c8ff" stop-opacity="1"></stop><stop offset="85.55555555555554%" stop-color="#e2c8ff" stop-opacity="1"></stop></linearGradient></defs><defs><linearGradient id="grad2_1" x1="0%" y1="100%" x2="56.3%" y2="0%"><stop offset="14.444444444444446%" stop-color="#e8d3ff" stop-opacity="1"></stop><stop offset="85.55555555555554%" stop-color="#e2c8ff" stop-opacity="1"></stop></linearGradient></defs><defs><linearGradient id="grad2_2" x1="0%" y1="100%" x2="56.3%" y2="0%"><stop offset="14.444444444444446%" stop-color="#e8d3ff" stop-opacity="1"></stop><stop offset="85.55555555555554%" stop-color="#eedeff" stop-opacity="1"></stop></linearGradient></defs><defs><linearGradient id="grad2_3" x1="0%" y1="100%" x2="56.3%" y2="0%"><stop offset="14.444444444444446%" stop-color="#f4e9ff" stop-opacity="1"></stop><stop offset="85.55555555555554%" stop-color="#eedeff" stop-opacity="1"></stop></linearGradient></defs><defs><linearGradient id="grad2_4" x1="0%" y1="100%" x2="56.3%" y2="0%"><stop offset="14.444444444444446%" stop-color="#f4e9ff" stop-opacity="1"></stop><stop offset="85.55555555555554%" stop-color="#faf4ff" stop-opacity="1"></stop></linearGradient></defs><defs><linearGradient id="grad2_5" x1="0%" y1="100%" x2="56.3%" y2="0%"><stop offset="14.444444444444446%" stop-color="#ffffff" stop-opacity="1"></stop><stop offset="85.55555555555554%" stop-color="#faf4ff" stop-opacity="1"></stop></linearGradient></defs><g transform="translate(960, 540)"><path d="M-540 0C-520.3 -65.5 -500.6 -131.1 -477.6 -197.8C-454.7 -264.6 -428.5 -332.5 -381.8 -381.8C-335.2 -431.1 -268 -461.8 -200.9 -485C-133.9 -508.3 -66.9 -524.1 0 -540L0 0Z" fill="#fcf9ff"></path><path d="M-450 0C-433.6 -54.6 -417.2 -109.2 -398 -164.9C-378.9 -220.5 -357.1 -277.1 -318.2 -318.2C-279.3 -359.3 -223.3 -384.8 -167.4 -404.2C-111.5 -423.6 -55.8 -436.8 0 -450L0 0Z" fill="#f7eeff"></path><path d="M-360 0C-346.9 -43.7 -333.7 -87.4 -318.4 -131.9C-303.1 -176.4 -285.7 -221.7 -254.6 -254.6C-223.4 -287.4 -178.6 -307.9 -133.9 -323.4C-89.2 -338.9 -44.6 -349.4 0 -360L0 0Z" fill="#f1e3ff"></path><path d="M-270 0C-260.1 -32.8 -250.3 -65.5 -238.8 -98.9C-227.4 -132.3 -214.3 -166.3 -190.9 -190.9C-167.6 -215.6 -134 -230.9 -100.5 -242.5C-66.9 -254.1 -33.5 -262.1 0 -270L0 0Z" fill="#ebd8ff"></path><path d="M-180 0C-173.4 -21.8 -166.9 -43.7 -159.2 -65.9C-151.6 -88.2 -142.8 -110.8 -127.3 -127.3C-111.7 -143.7 -89.3 -153.9 -67 -161.7C-44.6 -169.4 -22.3 -174.7 0 -180L0 0Z" fill="#e5cdff"></path><path d="M-90 0C-86.7 -10.9 -83.4 -21.8 -79.6 -33C-75.8 -44.1 -71.4 -55.4 -63.6 -63.6C-55.9 -71.9 -44.7 -77 -33.5 -80.8C-22.3 -84.7 -11.2 -87.4 0 -90L0 0Z" fill="#e2c8ff"></path></g><g transform="translate(0, 0)"><path d="M540 0C512.6 62.7 485.1 125.5 462.9 191.7C440.6 258 423.5 327.8 381.8 381.8C340.2 435.9 274 474.2 206.3 498C138.5 521.7 69.3 530.9 0 540L0 0Z" fill="#fcf9ff"></path><path d="M450 0C427.1 52.3 404.3 104.6 385.7 159.8C367.2 215 352.9 273.1 318.2 318.2C283.5 363.2 228.3 395.2 171.9 415C115.4 434.8 57.7 442.4 0 450L0 0Z" fill="#f7eeff"></path><path d="M360 0C341.7 41.8 323.4 83.6 308.6 127.8C293.7 172 282.3 218.5 254.6 254.6C226.8 290.6 182.7 316.2 137.5 332C92.4 347.8 46.2 353.9 0 360L0 0Z" fill="#f1e3ff"></path><path d="M270 0C256.3 31.4 242.6 62.7 231.4 95.9C220.3 129 211.7 163.9 190.9 190.9C170.1 217.9 137 237.1 103.1 249C69.3 260.9 34.6 265.4 0 270L0 0Z" fill="#ebd8ff"></path><path d="M180 0C170.9 20.9 161.7 41.8 154.3 63.9C146.9 86 141.2 109.3 127.3 127.3C113.4 145.3 91.3 158.1 68.8 166C46.2 173.9 23.1 177 0 180L0 0Z" fill="#e5cdff"></path><path d="M90 0C85.4 10.5 80.9 20.9 77.1 32C73.4 43 70.6 54.6 63.6 63.6C56.7 72.6 45.7 79 34.4 83C23.1 87 11.5 88.5 0 90L0 0Z" fill="#e2c8ff"></path></g></svg>